<svg width="204" height="56" viewBox="0 0 204 56" fill="none" xmlns="http://www.w3.org/2000/svg">
<path d="M10.824 36.04L5 20.168H9.288L13.32 32.168L17.352 20.168H21.64L15.784 36.04H10.824Z" fill="#F64920"/>
<path d="M26.6315 17.704C25.8848 17.704 25.2662 17.48 24.7755 17.032C24.3062 16.584 24.0715 16.0187 24.0715 15.336C24.0715 14.6533 24.3062 14.0987 24.7755 13.672C25.2662 13.224 25.8848 13 26.6315 13C27.3782 13 27.9862 13.224 28.4555 13.672C28.9462 14.0987 29.1915 14.6533 29.1915 15.336C29.1915 16.0187 28.9462 16.584 28.4555 17.032C27.9862 17.48 27.3782 17.704 26.6315 17.704ZM24.5835 36.04V20.168H28.6795V36.04H24.5835Z" fill="#F64920"/>
<path d="M40.4507 36.424C38.9574 36.424 37.6241 36.0613 36.4508 35.336C35.2774 34.6107 34.3494 33.6187 33.6667 32.36C32.9841 31.1013 32.6427 29.672 32.6427 28.072C32.6427 26.472 32.9841 25.0533 33.6667 23.816C34.3494 22.5573 35.2774 21.576 36.4508 20.872C37.6241 20.1467 38.9574 19.784 40.4507 19.784C41.6454 19.784 42.6908 20.008 43.5868 20.456C44.4827 20.904 45.2081 21.5333 45.7627 22.344V13H49.8587V36.04H46.2108L45.7627 33.768C45.2507 34.472 44.5681 35.0907 43.7147 35.624C42.8827 36.1573 41.7947 36.424 40.4507 36.424ZM41.3148 32.84C42.6374 32.84 43.7147 32.4027 44.5467 31.528C45.4001 30.632 45.8268 29.4907 45.8268 28.104C45.8268 26.7173 45.4001 25.5867 44.5467 24.712C43.7147 23.816 42.6374 23.368 41.3148 23.368C40.0134 23.368 38.9361 23.8053 38.0827 24.68C37.2294 25.5547 36.8027 26.6853 36.8027 28.072C36.8027 29.4587 37.2294 30.6 38.0827 31.496C38.9361 32.392 40.0134 32.84 41.3148 32.84Z" fill="#F64920"/>
<path d="M61.9417 36.424C60.3418 36.424 58.9231 36.0827 57.6857 35.4C56.4484 34.7173 55.4777 33.7573 54.7738 32.52C54.0698 31.2827 53.7177 29.8533 53.7177 28.232C53.7177 26.5893 54.0591 25.128 54.7417 23.848C55.4457 22.568 56.4058 21.576 57.6217 20.872C58.8591 20.1467 60.3097 19.784 61.9737 19.784C63.5311 19.784 64.9071 20.1253 66.1017 20.808C67.2964 21.4907 68.2244 22.4293 68.8857 23.624C69.5684 24.7973 69.9098 26.1093 69.9098 27.56C69.9098 27.7947 69.8991 28.04 69.8777 28.296C69.8777 28.552 69.8671 28.8187 69.8457 29.096H57.7817C57.8671 30.3333 58.2937 31.304 59.0617 32.008C59.8511 32.712 60.8004 33.064 61.9097 33.064C62.7417 33.064 63.4351 32.8827 63.9897 32.52C64.5658 32.136 64.9924 31.6453 65.2697 31.048H69.4297C69.1311 32.0507 68.6297 32.968 67.9258 33.8C67.2431 34.6107 66.3897 35.2507 65.3657 35.72C64.3631 36.1893 63.2217 36.424 61.9417 36.424ZM61.9737 23.112C60.9711 23.112 60.0858 23.4 59.3177 23.976C58.5497 24.5307 58.0591 25.384 57.8457 26.536H65.7497C65.6857 25.4907 65.3017 24.6587 64.5977 24.04C63.8937 23.4213 63.0191 23.112 61.9737 23.112Z" fill="#F64920"/>
<path d="M81.1708 36.424C79.6348 36.424 78.2481 36.072 77.0107 35.368C75.7947 34.664 74.8241 33.6933 74.0988 32.456C73.3948 31.1973 73.0428 29.7467 73.0428 28.104C73.0428 26.4613 73.4054 25.0213 74.1308 23.784C74.8561 22.5253 75.8268 21.544 77.0428 20.84C78.2801 20.136 79.6667 19.784 81.2028 19.784C82.7174 19.784 84.0827 20.136 85.2988 20.84C86.5361 21.544 87.5068 22.5253 88.2108 23.784C88.9361 25.0213 89.2988 26.4613 89.2988 28.104C89.2988 29.7467 88.9361 31.1973 88.2108 32.456C87.5068 33.6933 86.5361 34.664 85.2988 35.368C84.0614 36.072 82.6854 36.424 81.1708 36.424ZM81.1708 32.872C82.2374 32.872 83.1654 32.4773 83.9548 31.688C84.7441 30.8773 85.1388 29.6827 85.1388 28.104C85.1388 26.5253 84.7441 25.3413 83.9548 24.552C83.1654 23.7413 82.2481 23.336 81.2028 23.336C80.1148 23.336 79.1761 23.7413 78.3868 24.552C77.6188 25.3413 77.2348 26.5253 77.2348 28.104C77.2348 29.6827 77.6188 30.8773 78.3868 31.688C79.1761 32.4773 80.1041 32.872 81.1708 32.872Z" fill="#F64920"/>
<path d="M102.569 36.424C101.374 36.424 100.329 36.2 99.433 35.752C98.537 35.304 97.8117 34.6747 97.257 33.864L96.809 36.04H93.161V13H97.257V22.44C97.769 21.736 98.441 21.1173 99.273 20.584C100.126 20.0507 101.225 19.784 102.569 19.784C104.062 19.784 105.396 20.1467 106.569 20.872C107.742 21.5973 108.67 22.5893 109.353 23.848C110.036 25.1067 110.377 26.536 110.377 28.136C110.377 29.736 110.036 31.1653 109.353 32.424C108.67 33.6613 107.742 34.6427 106.569 35.368C105.396 36.072 104.062 36.424 102.569 36.424ZM101.705 32.84C103.006 32.84 104.084 32.4027 104.937 31.528C105.79 30.6533 106.217 29.5227 106.217 28.136C106.217 26.7493 105.79 25.608 104.937 24.712C104.084 23.816 103.006 23.368 101.705 23.368C100.382 23.368 99.2943 23.816 98.441 24.712C97.609 25.5867 97.193 26.7173 97.193 28.104C97.193 29.4907 97.609 30.632 98.441 31.528C99.2943 32.4027 100.382 32.84 101.705 32.84Z" fill="#F64920"/>
<path d="M121.948 36.424C120.348 36.424 118.929 36.0827 117.692 35.4C116.455 34.7173 115.484 33.7573 114.78 32.52C114.076 31.2827 113.724 29.8533 113.724 28.232C113.724 26.5893 114.065 25.128 114.748 23.848C115.452 22.568 116.412 21.576 117.628 20.872C118.865 20.1467 120.316 19.784 121.98 19.784C123.537 19.784 124.913 20.1253 126.108 20.808C127.303 21.4907 128.231 22.4293 128.892 23.624C129.575 24.7973 129.916 26.1093 129.916 27.56C129.916 27.7947 129.905 28.04 129.884 28.296C129.884 28.552 129.873 28.8187 129.852 29.096H117.788C117.873 30.3333 118.3 31.304 119.068 32.008C119.857 32.712 120.807 33.064 121.916 33.064C122.748 33.064 123.441 32.8827 123.996 32.52C124.572 32.136 124.999 31.6453 125.276 31.048H129.436C129.137 32.0507 128.636 32.968 127.932 33.8C127.249 34.6107 126.396 35.2507 125.372 35.72C124.369 36.1893 123.228 36.424 121.948 36.424ZM121.98 23.112C120.977 23.112 120.092 23.4 119.324 23.976C118.556 24.5307 118.065 25.384 117.852 26.536H125.756C125.692 25.4907 125.308 24.6587 124.604 24.04C123.9 23.4213 123.025 23.112 121.98 23.112Z" fill="#F64920"/>
<path d="M133.561 36.04V13H137.657V36.04H133.561Z" fill="#F64920"/>
<path d="M147.514 36.424C146.149 36.424 145.029 36.2107 144.154 35.784C143.28 35.336 142.629 34.7493 142.202 34.024C141.776 33.2987 141.562 32.4987 141.562 31.624C141.562 30.152 142.138 28.9573 143.29 28.04C144.442 27.1227 146.17 26.664 148.474 26.664H152.506V26.28C152.506 25.192 152.197 24.392 151.578 23.88C150.96 23.368 150.192 23.112 149.274 23.112C148.442 23.112 147.717 23.3147 147.098 23.72C146.48 24.104 146.096 24.68 145.946 25.448H141.946C142.053 24.296 142.437 23.2933 143.098 22.44C143.781 21.5867 144.656 20.936 145.722 20.488C146.789 20.0187 147.984 19.784 149.306 19.784C151.568 19.784 153.349 20.3493 154.65 21.48C155.952 22.6107 156.602 24.2107 156.602 26.28V36.04H153.114L152.73 33.48C152.261 34.3333 151.6 35.0373 150.746 35.592C149.914 36.1467 148.837 36.424 147.514 36.424ZM148.442 33.224C149.616 33.224 150.522 32.84 151.162 32.072C151.824 31.304 152.24 30.3547 152.41 29.224H148.922C147.834 29.224 147.056 29.4267 146.586 29.832C146.117 30.216 145.882 30.696 145.882 31.272C145.882 31.8907 146.117 32.3707 146.586 32.712C147.056 33.0533 147.674 33.224 148.442 33.224Z" fill="#F64920"/>
<path d="M162.983 17.704C162.236 17.704 161.618 17.48 161.127 17.032C160.658 16.584 160.423 16.0187 160.423 15.336C160.423 14.6533 160.658 14.0987 161.127 13.672C161.618 13.224 162.236 13 162.983 13C163.73 13 164.338 13.224 164.807 13.672C165.298 14.0987 165.543 14.6533 165.543 15.336C165.543 16.0187 165.298 16.584 164.807 17.032C164.338 17.48 163.73 17.704 162.983 17.704ZM157.703 43.08V39.592H158.951C159.655 39.592 160.156 39.4533 160.455 39.176C160.754 38.8987 160.903 38.4293 160.903 37.768V20.168H164.999V37.768C164.999 39.688 164.508 41.0533 163.527 41.864C162.567 42.6747 161.255 43.08 159.591 43.08H157.703Z" fill="#F64920"/>
<path d="M174.945 36.424C173.58 36.424 172.46 36.2107 171.585 35.784C170.711 35.336 170.06 34.7493 169.633 34.024C169.207 33.2987 168.993 32.4987 168.993 31.624C168.993 30.152 169.57 28.9573 170.721 28.04C171.873 27.1227 173.602 26.664 175.906 26.664H179.938V26.28C179.938 25.192 179.628 24.392 179.01 23.88C178.391 23.368 177.623 23.112 176.706 23.112C175.874 23.112 175.148 23.3147 174.529 23.72C173.911 24.104 173.527 24.68 173.378 25.448H169.378C169.484 24.296 169.868 23.2933 170.529 22.44C171.212 21.5867 172.087 20.936 173.154 20.488C174.22 20.0187 175.415 19.784 176.738 19.784C178.999 19.784 180.78 20.3493 182.081 21.48C183.383 22.6107 184.034 24.2107 184.034 26.28V36.04H180.546L180.161 33.48C179.692 34.3333 179.031 35.0373 178.178 35.592C177.346 36.1467 176.268 36.424 174.945 36.424ZM175.874 33.224C177.047 33.224 177.954 32.84 178.594 32.072C179.255 31.304 179.671 30.3547 179.842 29.224H176.354C175.266 29.224 174.487 29.4267 174.018 29.832C173.548 30.216 173.314 30.696 173.314 31.272C173.314 31.8907 173.548 32.3707 174.018 32.712C174.487 33.0533 175.105 33.224 175.874 33.224Z" fill="#F64920"/>
<path d="M188.142 36.04V20.168H191.79L192.174 23.144C192.75 22.12 193.529 21.3093 194.51 20.712C195.513 20.0933 196.686 19.784 198.03 19.784V24.104H196.878C195.982 24.104 195.182 24.2427 194.478 24.52C193.774 24.7973 193.22 25.2773 192.814 25.96C192.43 26.6427 192.238 27.592 192.238 28.808V36.04H188.142Z" fill="#F64920"/>
<path fill-rule="evenodd" clip-rule="evenodd" d="M24.7755 17.032C25.2662 17.48 25.8848 17.704 26.6315 17.704C27.3782 17.704 27.9862 17.48 28.4555 17.032C28.9462 16.584 29.1915 16.0187 29.1915 15.336C29.1915 14.6533 28.9462 14.0987 28.4555 13.672C27.9862 13.224 27.3782 13 26.6315 13C25.8848 13 25.2662 13.224 24.7755 13.672C24.3062 14.0987 24.0715 14.6533 24.0715 15.336C24.0715 16.0187 24.3062 16.584 24.7755 17.032ZM24.5835 20.168V36.04H28.6795V20.168H24.5835ZM5 20.168L10.824 36.04H15.784L21.64 20.168H17.352L13.32 32.168L9.288 20.168H5ZM40.4507 36.424C38.9574 36.424 37.6241 36.0613 36.4508 35.336C35.2774 34.6107 34.3494 33.6187 33.6667 32.36C32.9841 31.1013 32.6427 29.672 32.6427 28.072C32.6427 26.472 32.9841 25.0533 33.6667 23.816C34.3494 22.5573 35.2774 21.576 36.4508 20.872C37.6241 20.1467 38.9574 19.784 40.4507 19.784C41.6454 19.784 42.6908 20.008 43.5868 20.456C44.4827 20.904 45.2081 21.5333 45.7627 22.344V13H49.8587V36.04H46.2108L45.7627 33.768C45.2507 34.472 44.5681 35.0907 43.7147 35.624C42.8827 36.1573 41.7947 36.424 40.4507 36.424ZM41.3148 32.84C42.6374 32.84 43.7147 32.4027 44.5467 31.528C45.4001 30.632 45.8268 29.4907 45.8268 28.104C45.8268 26.7173 45.4001 25.5867 44.5467 24.712C43.7147 23.816 42.6374 23.368 41.3148 23.368C40.0134 23.368 38.9361 23.8053 38.0827 24.68C37.2294 25.5547 36.8027 26.6853 36.8027 28.072C36.8027 29.4587 37.2294 30.6 38.0827 31.496C38.9361 32.392 40.0134 32.84 41.3148 32.84ZM57.6857 35.4C58.9231 36.0827 60.3418 36.424 61.9417 36.424C63.2217 36.424 64.3631 36.1893 65.3657 35.72C66.3897 35.2507 67.2431 34.6107 67.9258 33.8C68.6297 32.968 69.1311 32.0507 69.4297 31.048H65.2697C64.9924 31.6453 64.5658 32.136 63.9897 32.52C63.4351 32.8827 62.7417 33.064 61.9097 33.064C60.8004 33.064 59.8511 32.712 59.0617 32.008C58.2937 31.304 57.8671 30.3333 57.7817 29.096H69.8457C69.8671 28.8187 69.8777 28.552 69.8777 28.296C69.8991 28.04 69.9098 27.7947 69.9098 27.56C69.9098 26.1093 69.5684 24.7973 68.8857 23.624C68.2244 22.4293 67.2964 21.4907 66.1017 20.808C64.9071 20.1253 63.5311 19.784 61.9737 19.784C60.3097 19.784 58.8591 20.1467 57.6217 20.872C56.4058 21.576 55.4457 22.568 54.7417 23.848C54.0591 25.128 53.7177 26.5893 53.7177 28.232C53.7177 29.8533 54.0698 31.2827 54.7738 32.52C55.4777 33.7573 56.4484 34.7173 57.6857 35.4ZM59.3177 23.976C60.0858 23.4 60.9711 23.112 61.9737 23.112C63.0191 23.112 63.8937 23.4213 64.5977 24.04C65.3017 24.6587 65.6857 25.4907 65.7497 26.536H57.8457C58.0591 25.384 58.5497 24.5307 59.3177 23.976ZM81.1708 36.424C79.6348 36.424 78.2481 36.072 77.0107 35.368C75.7947 34.664 74.8241 33.6933 74.0988 32.456C73.3948 31.1973 73.0428 29.7467 73.0428 28.104C73.0428 26.4613 73.4054 25.0213 74.1308 23.784C74.8561 22.5253 75.8268 21.544 77.0428 20.84C78.2801 20.136 79.6667 19.784 81.2028 19.784C82.7174 19.784 84.0827 20.136 85.2988 20.84C86.5361 21.544 87.5068 22.5253 88.2108 23.784C88.9361 25.0213 89.2988 26.4613 89.2988 28.104C89.2988 29.7467 88.9361 31.1973 88.2108 32.456C87.5068 33.6933 86.5361 34.664 85.2988 35.368C84.0614 36.072 82.6854 36.424 81.1708 36.424ZM81.1708 32.872C82.2374 32.872 83.1654 32.4773 83.9548 31.688C84.7441 30.8773 85.1388 29.6827 85.1388 28.104C85.1388 26.5253 84.7441 25.3413 83.9548 24.552C83.1654 23.7413 82.2481 23.336 81.2028 23.336C80.1148 23.336 79.1761 23.7413 78.3868 24.552C77.6188 25.3413 77.2348 26.5253 77.2348 28.104C77.2348 29.6827 77.6188 30.8773 78.3868 31.688C79.1761 32.4773 80.1041 32.872 81.1708 32.872ZM110.377 28.1069C107.118 30.4506 104.201 33.239 101.713 36.3832C100.868 36.3001 100.108 36.0897 99.433 35.752C98.537 35.304 97.8117 34.6747 97.257 33.864L96.809 36.04H93.161V13H97.257V22.44C97.769 21.736 98.441 21.1173 99.273 20.584C100.126 20.0507 101.225 19.784 102.569 19.784C104.062 19.784 105.396 20.1467 106.569 20.872C107.742 21.5973 108.67 22.5893 109.353 23.848C110.032 25.099 110.373 26.5187 110.377 28.1069ZM126.414 20.9923C121.991 21.9389 117.819 23.5659 114.015 25.7584C114.185 25.0821 114.429 24.4453 114.748 23.848C115.452 22.568 116.412 21.576 117.628 20.872C118.865 20.1467 120.316 19.784 121.98 19.784C123.537 19.784 124.913 20.1253 126.108 20.808C126.212 20.8675 126.314 20.9289 126.414 20.9923ZM137.657 20.0953C136.928 20.0586 136.194 20.04 135.456 20.04C134.821 20.04 134.189 20.0537 133.561 20.081V13H137.657V20.0953ZM156.576 25.5752C152.91 23.5042 148.91 21.9557 144.676 21.0308C145.001 20.8252 145.35 20.6443 145.722 20.488C146.789 20.0187 147.984 19.784 149.306 19.784C151.568 19.784 153.349 20.3493 154.65 21.48C155.8 22.4788 156.442 23.8439 156.576 25.5752ZM164.999 31.7954C163.707 30.5732 162.339 29.4303 160.903 28.3744V20.168H164.999V31.7954ZM104.937 31.528C104.084 32.4027 103.006 32.84 101.705 32.84C100.382 32.84 99.2943 32.4027 98.441 31.528C97.609 30.632 97.193 29.4907 97.193 28.104C97.193 26.7173 97.609 25.5867 98.441 24.712C99.2943 23.816 100.382 23.368 101.705 23.368C103.006 23.368 104.084 23.816 104.937 24.712C105.79 25.608 106.217 26.7493 106.217 28.136C106.217 29.5227 105.79 30.6533 104.937 31.528ZM161.127 17.032C161.618 17.48 162.236 17.704 162.983 17.704C163.73 17.704 164.338 17.48 164.807 17.032C165.298 16.584 165.543 16.0187 165.543 15.336C165.543 14.6533 165.298 14.0987 164.807 13.672C164.338 13.224 163.73 13 162.983 13C162.236 13 161.618 13.224 161.127 13.672C160.658 14.0987 160.423 14.6533 160.423 15.336C160.423 16.0187 160.658 16.584 161.127 17.032ZM174.945 36.424C173.58 36.424 172.46 36.2107 171.585 35.784C170.711 35.336 170.06 34.7493 169.633 34.024C169.207 33.2987 168.993 32.4987 168.993 31.624C168.993 30.152 169.57 28.9573 170.721 28.04C171.873 27.1227 173.602 26.664 175.906 26.664H179.938V26.28C179.938 25.192 179.628 24.392 179.01 23.88C178.391 23.368 177.623 23.112 176.706 23.112C175.874 23.112 175.148 23.3147 174.529 23.72C173.911 24.104 173.527 24.68 173.378 25.448H169.378C169.484 24.296 169.868 23.2933 170.529 22.44C171.212 21.5867 172.087 20.936 173.154 20.488C174.22 20.0187 175.415 19.784 176.738 19.784C178.999 19.784 180.78 20.3493 182.081 21.48C183.383 22.6107 184.034 24.2107 184.034 26.28V36.04H180.546L180.161 33.48C179.692 34.3333 179.031 35.0373 178.178 35.592C177.346 36.1467 176.268 36.424 174.945 36.424ZM175.874 33.224C177.047 33.224 177.954 32.84 178.594 32.072C179.255 31.304 179.671 30.3547 179.842 29.224H176.354C175.266 29.224 174.487 29.4267 174.018 29.832C173.548 30.216 173.314 30.696 173.314 31.272C173.314 31.8907 173.548 32.3707 174.018 32.712C174.487 33.0533 175.105 33.224 175.874 33.224ZM191.79 20.168H188.142V36.04H192.238V28.808C192.238 27.592 192.43 26.6427 192.814 25.96C193.22 25.2773 193.774 24.7973 194.478 24.52C195.182 24.2427 195.982 24.104 196.878 24.104H198.03V19.784C196.686 19.784 195.513 20.0933 194.51 20.712C193.529 21.3093 192.75 22.12 192.174 23.144L191.79 20.168Z" fill="#FFBD3A"/>
</svg>
